<svg xmlns="http://www.w3.org/2000/svg" width="512" height="512" id="calendar">
  <path d="M214.151 80.0812C234.147 78.4655 245.378 97.5835 247.39 115.125C250.842 116.422 254.671 117.104 258.265 117.945L332.628 136.058C356.3 141.804 382.972 150.672 406.386 154.855C421.126 123.773 462.402 135.576 465.546 169.415C497.745 177.724 513.155 176.365 520.729 215.93L561.512 420.965C563.524 430.906 565.953 440.791 567.758 450.77C570.177 464.143 548.279 475.043 538.08 482.821L468.463 535.566C463.164 539.529 454.815 546.794 448.882 549.108C445.274 550.052 421.805 542.496 416.428 541.057L132.13 468.091C123.838 465.96 115.24 464.451 107.12 461.741C92.2355 456.774 75.6303 439.778 76.8184 423.155C77.3549 415.65 79.5272 408.052 81.1187 400.708L116.155 232.373C120.29 212.663 125.149 174.94 131.513 157.827C138.025 140.315 163.647 99.9869 186.161 101.934L186.676 101.981L186.38 101.768L186.976 101.985C195.164 94.0873 192.842 82.8466 214.151 80.0812ZM142.856 202.66L109.807 363.131C107.297 375.517 104.884 387.925 102.209 400.277C99.0196 415.006 91.1366 432.368 109.583 441.232C115.396 444.026 122.603 445.421 128.862 446.931L152.957 452.709C175.273 458.175 197.441 464.214 219.807 469.489C224.037 471.107 228.862 471.953 233.272 473.076L257.68 479.373C291.938 488.207 326.518 496.045 360.586 505.601C369.304 507.93 378.105 510.561 386.954 512.328C397.075 516.077 421.893 522.223 432.499 524.165L436.361 525.452C437.564 516.139 439.249 506.975 440.638 497.7L467.529 325.058C469.683 311.501 471.743 297.794 474.546 284.355L154.756 205.758C150.816 204.795 146.664 204.044 142.856 202.66ZM505.263 248.729C499.426 256.155 487.307 332.322 485.056 346.374L458.407 512.003C458.085 513.98 457.452 516.138 457.535 518.131L457.922 518.291L458.394 517.878C472.78 506.468 490.788 492.055 505.955 482.204C504.834 425.993 505.852 369.671 505.637 313.443L505.633 270.493C505.637 266.012 506.899 252.261 505.263 248.729ZM526.71 355.229C526.103 381.637 526.241 408.058 526.246 434.48L526.218 456.548C526.185 459.85 525.729 463.389 526.077 466.661C529.939 463.697 533.871 460.795 537.666 457.748C540.939 455.247 544.284 452.802 547.48 450.205C544.069 438.938 528.744 357.158 526.71 355.229ZM215.395 100.076C213.163 100.465 207.768 102.069 208.761 105.22C210.96 107.154 218.118 107.428 221.172 107.944C222.934 108.299 224.695 108.685 226.467 108.984C224.337 105.056 220.679 99.2265 215.395 100.076ZM434.49 156.366C431.957 156.591 429.54 157.401 427.751 159.286L427.534 160.014C428.952 161.993 434.792 162.457 437.263 162.925C439.448 163.375 441.633 163.777 443.834 164.143C441.78 160.648 438.823 156.851 434.49 156.366Z" transform="scale(.8)"></path>
  <path fill="#CEFC34" d="M147.255 176.777C151.464 160.07 157.764 146.877 169.653 134.154C172.32 131.301 180.686 121.928 185.281 123.319C186.204 126.628 186.204 130.357 186.826 133.757C193.696 171.353 225.144 161.201 220.338 148.547C216.982 139.708 208.357 142.065 204.694 125.254C249.727 135.85 294.609 147.253 339.459 158.603L378.324 168.642C385.886 170.607 393.563 172.879 401.245 174.302C401.563 186.673 404.514 200.177 413.875 209.062C422.018 216.79 434.829 214.83 438.409 203.434C434.019 193.418 423.956 193.521 421.474 179.505C429.736 180.894 437.936 183.461 446.106 185.382L467.899 190.552C478.748 193.177 495.335 195.959 499.459 208.152C497.826 214.201 494.511 219.895 492.089 225.661C487.326 236.997 483.106 249.103 480.687 261.173L479.822 265.095C470.681 261.783 457.205 259.538 447.365 257.197L145.777 183.122C146.227 181 146.762 178.889 147.255 176.777Z" transform="scale(.8)"></path>
  <path fill="#0042FF" d="M277.464 392.899C303.165 390.473 311.247 427.457 282.32 436.04 258.289 439.947 245.96 398.759 277.464 392.899zM286.831 331.64C314.401 329.476 318.595 371.287 290.577 374.853 265.646 376.457 256.505 336.972 286.831 331.64zM406.455 357.318C432.89 357.881 435.529 396.979 406.075 401.011 379.577 397.983 376.168 359.611 406.455 357.318zM227.048 321.031C256.09 318.626 260.721 357.667 234.764 363.365 205.148 366.893 199.593 325.163 227.048 321.031zM417.454 297.277C445.473 295.826 452.844 332.931 424.298 339.95 398.159 344.524 388.135 301.764 417.454 297.277zM168.091 308.544C196.517 304.914 201.249 347.518 174.446 351.837 147.743 354.273 138.476 312.975 168.091 308.544zM345.222 343.546C372.681 341.43 377.262 382.514 350.322 387.229 321.011 387.783 316.487 346.946 345.222 343.546zM217.718 381.048C246.296 378.521 248.056 420.718 220.702 424.604 193.325 425.91 188.516 384.277 217.718 381.048zM396.268 418.246C424.256 416.638 428.584 456.133 400.349 461.547 372.646 462.409 365.889 421.152 396.268 418.246zM155.785 369.14C183.441 366.218 187.518 408.158 160.693 412.839 133.508 413.684 124.067 375.689 155.785 369.14zM336.462 404.782C361.365 401.217 371.114 441.726 341.865 449.008 315.034 451.689 305.832 409.478 336.462 404.782zM357.355 283.831C387.647 281.283 391.563 323.414 364.697 327.721 337.159 329.743 328.532 288.586 357.355 283.831zM298.099 270.412C325.958 266.382 331.051 311.318 301.952 314.241 278.217 317.346 265.665 276.151 298.099 270.412z" transform="scale(.8)"></path>
  <path fill="#fff" d="M219.807 469.489L220.22 469.174C226.955 470.764 233.573 472.67 240.33 474.082L240.53 474.429L240.828 474.107C238.841 472.605 235.568 472.089 233.236 471.144C226.733 468.511 192.495 457.135 195.522 448.705L195.04 448.704L194.761 448.497C196.096 446.872 196.872 445.819 198.984 445.564C197.353 444.065 167.284 437.769 164.097 437.151C162.19 436.781 158.961 436.358 157.269 435.45L157.496 435.228C172.926 438.249 188.15 442.356 203.416 446.108L259.018 460.354C275.698 464.648 292.581 468.065 309.246 472.404C347.149 482.272 386.843 493.783 424.674 504.552L424.223 504.341L424.129 504.526C422.661 504.288 421.199 504.035 419.738 503.762L419.449 503.971C419.111 507.442 415.06 509.943 413.033 512.518C409.375 517.167 404.635 513.423 401.008 515.46C404.485 516.384 431.487 523.022 432.395 523.838L432.499 524.165C421.893 522.223 397.075 516.077 386.954 512.328C378.105 510.561 369.304 507.93 360.586 505.601C326.518 496.045 291.938 488.207 257.68 479.373L233.272 473.076C228.862 471.953 224.037 471.107 219.807 469.489Z" transform="scale(.8)"></path>
</svg>
